<svg xmlns="http://www.w3.org/2000/svg" width="152" height="149" viewBox="0 0 152 149">
  <g fill="none" transform="translate(1)">
    <ellipse cx="75.165" cy="73.859" fill="#FFF" stroke="#000" stroke-width="2" rx="74.505" ry="73.696"/>
    <g transform="translate(21.429 37.5)">
      <path fill="#000" d="M97.0879121,2.2826087 C96.2637363,1.95652174 94.4505495,3.09782609 92.4725275,4.72826087 L93.2967033,0.97826087 C87.032967,3.58695652 82.5824176,11.576087 82.5824176,11.576087 L82.5824176,11.576087 C71.5384615,7.82608696 61.978022,6.68478261 54.0659341,6.84782609 C46.1538462,6.68478261 36.4285714,7.98913043 25.2197802,11.7391304 C24.2307692,7.33695652 14.010989,1.14130435 14.010989,1.14130435 L14.5054945,4.07608696 C13.021978,2.93478261 11.7032967,2.2826087 11.043956,2.60869565 C8.73626374,3.58695652 -3.2967033,66.8478261 19.1208791,92.9347826 C28.3516484,103.532609 40.7142857,106.956522 54.0659341,106.793478 C66.9230769,106.956522 79.7802198,103.532609 89.010989,92.9347826 C111.428571,66.5217391 99.3956044,3.26086957 97.0879121,2.2826087 Z"/>
      <path fill="#000" d="M11.3736264 12.3913043L8.40659341 9.61956522 8.40659341 1.95652174C8.40659341.97826087 7.58241758.163043478 6.59340659.163043478 5.6043956.163043478 4.78021978.97826087 4.78021978 1.95652174L4.78021978 9.29347826C4.61538462 9.45652174 4.45054945 9.45652174 4.28571429 9.61956522L1.64835165 12.7173913C.989010989 13.3695652 1.15384615 14.5108696 1.81318681 15.1630435 2.47252747 15.8152174 3.62637363 15.6521739 4.28571429 15L5.10989011 14.0217391 5.10989011 14.8369565C5.10989011 15.8152174 5.93406593 16.6304348 6.92307692 16.6304348 7.91208791 16.6304348 8.73626374 15.8152174 8.73626374 14.8369565L8.73626374 14.1847826 9.3956044 14.673913C10.0549451 15.326087 11.2087912 15.326087 11.8681319 14.5108696 12.1978022 14.0217391 12.1978022 13.0434783 11.3736264 12.3913043zM33.7912088 12.3913043L30.8241758 9.61956522 30.8241758 1.95652174C30.8241758.97826087 30 .163043478 29.010989.163043478 28.021978.163043478 27.1978022.97826087 27.1978022 1.95652174L27.1978022 9.29347826C27.032967 9.45652174 26.8681319 9.45652174 26.7032967 9.61956522L24.0659341 12.7173913C23.4065934 13.3695652 23.5714286 14.5108696 24.2307692 15.1630435 24.8901099 15.8152174 26.043956 15.6521739 26.7032967 15L27.5274725 14.0217391 27.5274725 14.8369565C27.5274725 15.8152174 28.3516484 16.6304348 29.3406593 16.6304348 30.3296703 16.6304348 31.1538462 15.8152174 31.1538462 14.8369565L31.1538462 14.1847826 31.8131868 14.673913C32.4725275 15.326087 33.6263736 15.326087 34.2857143 14.5108696 34.6153846 14.0217391 34.4505495 13.0434783 33.7912088 12.3913043z" transform="translate(36.264 94.565)"/>
      <ellipse cx="76.978" cy="38.315" fill="#FFF" rx="16.319" ry="16.141"/>
      <g fill="#000" transform="translate(23.077 61.957)">
        <path d="M59.8351648,36.5217391 C60.4945055,34.076087 60.8241758,31.6304348 60.8241758,29.0217391 C60.8241758,13.0434783 47.4725275,0.163043478 30.8241758,0.163043478 C14.1758242,0.163043478 0.824175824,13.0434783 0.824175824,29.0217391 C0.824175824,31.6304348 1.15384615,34.076087 1.81318681,36.5217391 C10.0549451,42.7173913 20.1098901,44.8369565 30.6593407,44.8369565 C41.2087912,45 51.4285714,42.8804348 59.8351648,36.5217391 Z"/>
        <path d="M59.8351648,36.5217391 C60.4945055,34.076087 60.8241758,31.6304348 60.8241758,29.0217391 C60.8241758,13.0434783 47.4725275,0.163043478 30.8241758,0.163043478 C14.1758242,0.163043478 0.824175824,13.0434783 0.824175824,29.0217391 C0.824175824,31.6304348 1.15384615,34.076087 1.81318681,36.5217391 C10.0549451,42.7173913 20.1098901,44.8369565 30.6593407,44.8369565 C41.2087912,45 51.4285714,42.8804348 59.8351648,36.5217391 Z" opacity=".8"/>
      </g>
      <path fill="#000" d="M17.4725275 55.1086957C17.4725275 55.1086957-11.2087912 40.1086957 6.92307692.97826087 6.92307692.815217391 29.6703297 33.5869565 17.4725275 55.1086957zM89.5054945 55.1086957C89.5054945 55.1086957 118.846154 40.1086957 100.714286.97826087 100.714286.815217391 77.3076923 33.5869565 89.5054945 55.1086957z" transform="translate(0 44.022)"/>
      <g transform="translate(14.835 22.826)">
        <ellipse cx="16.648" cy="16.141" fill="#FFF" rx="16.154" ry="15.978"/>
        <path fill="#000" d="M19.7802198 9.94565217C18.4615385 9.94565217 17.4725275 9.29347826 17.4725275 8.47826087 17.4725275 7.66304348 18.4615385 7.01086957 19.7802198 7.01086957L19.9450549 7.01086957C18.4615385 4.89130435 15.8241758 3.42391304 13.021978 3.42391304 8.40659341 3.42391304 4.61538462 7.17391304 4.61538462 11.7391304 4.61538462 16.3043478 8.40659341 20.0543478 13.021978 20.0543478 17.6373626 20.0543478 21.4285714 16.3043478 21.4285714 11.7391304 21.4285714 10.923913 21.2637363 10.2717391 21.0989011 9.45652174 20.7692308 9.7826087 20.2747253 9.94565217 19.7802198 9.94565217zM65.9340659 9.94565217C64.6153846 9.94565217 63.6263736 9.29347826 63.6263736 8.47826087 63.6263736 7.66304348 64.6153846 7.01086957 65.9340659 7.01086957L66.0989011 7.01086957C64.6153846 4.89130435 61.978022 3.42391304 59.1758242 3.42391304 54.5604396 3.42391304 50.7692308 7.17391304 50.7692308 11.7391304 50.7692308 16.3043478 54.5604396 20.0543478 59.1758242 20.0543478 63.7912088 20.0543478 67.5824176 16.3043478 67.5824176 11.7391304 67.5824176 10.923913 67.4175824 10.2717391 67.2527473 9.45652174 66.9230769 9.7826087 66.4285714 9.94565217 65.9340659 9.94565217z"/>
      </g>
    </g>
  </g>
</svg>
